# MagicaVoxel @ Ephtracy

# material
mtllib wall.mtl
usemtl palette

# normals
vn -1 0 0
vn 1 0 0
vn 0 0 1
vn 0 0 -1
vn 0 -1 0
vn 0 1 0

# texcoords
vt 0.970703 0.5
vt 0.978516 0.5
vt 0.982422 0.5

# verts
v -10 0 20
v -10 0 -10
v -10 1 19
v -10 1 -9
v -10 2 18
v -10 2 -8
v -10 28 18
v -10 28 -8
v -10 29 19
v -10 29 -9
v -10 31 19
v -10 31 -9
v -10 34 18
v -10 34 -8
v -10 56 18
v -10 56 -8
v -10 59 19
v -10 59 -9
v -10 60 19
v -10 60 -9
v -10 61 18
v -10 61 -8
v -10 87 18
v -10 87 -8
v -10 88 19
v -10 88 -9
v -10 89 20
v -10 89 -10
v 20 0 20
v 20 0 -10
v 20 1 19
v 20 1 -9
v 20 2 18
v 20 2 -8
v 20 28 18
v 20 28 -8
v 20 29 19
v 20 29 -9
v 20 31 19
v 20 31 -9
v 20 34 18
v 20 34 -8
v 20 56 18
v 20 56 -8
v 20 59 19
v 20 59 -9
v 20 60 19
v 20 60 -9
v 20 61 18
v 20 61 -8
v 20 87 18
v 20 87 -8
v 20 88 19
v 20 88 -9
v 20 89 20
v 20 89 -10
v -10 0 20
v -10 89 20
v -9 1 20
v -9 29 20
v -9 31 20
v -9 59 20
v -9 60 20
v -9 88 20
v -8 2 20
v -8 28 20
v -8 34 20
v -8 56 20
v -8 61 20
v -8 87 20
v 18 2 20
v 18 28 20
v 18 34 20
v 18 56 20
v 18 61 20
v 18 87 20
v 19 1 20
v 19 29 20
v 19 31 20
v 19 59 20
v 19 60 20
v 19 88 20
v 20 0 20
v 20 89 20
v -10 0 -10
v -10 89 -10
v -9 1 -10
v -9 29 -10
v -9 31 -10
v -9 59 -10
v -9 60 -10
v -9 88 -10
v 19 1 -10
v 19 29 -10
v 19 31 -10
v 19 59 -10
v 19 60 -10
v 19 88 -10
v 20 0 -10
v 20 89 -10
v -10 0 20
v 20 0 20
v -9 0 19
v 19 0 19
v -8 0 18
v 18 0 18
v -8 0 -8
v 18 0 -8
v -9 0 -9
v 19 0 -9
v -10 0 -10
v 20 0 -10
v -10 89 20
v 20 89 20
v -9 89 19
v 19 89 19
v -9 89 -9
v 19 89 -9
v -10 89 -10
v 20 89 -10

# faces
f 3/2/1 2/2/1 1/2/1
f 4/2/1 2/2/1 3/2/1
f 5/3/1 4/3/1 3/3/1
f 6/3/1 4/3/1 5/3/1
f 7/3/1 5/3/1 3/3/1
f 7/1/1 6/1/1 5/1/1
f 8/3/1 4/3/1 6/3/1
f 8/1/1 6/1/1 7/1/1
f 9/2/1 3/2/1 1/2/1
f 9/3/1 7/3/1 3/3/1
f 9/3/1 8/3/1 7/3/1
f 10/3/1 4/3/1 8/3/1
f 10/3/1 8/3/1 9/3/1
f 10/2/1 2/2/1 4/2/1
f 11/2/1 9/2/1 1/2/1
f 11/2/1 10/2/1 9/2/1
f 12/2/1 2/2/1 10/2/1
f 12/2/1 10/2/1 11/2/1
f 13/3/1 12/3/1 11/3/1
f 14/3/1 12/3/1 13/3/1
f 15/3/1 13/3/1 11/3/1
f 15/1/1 14/1/1 13/1/1
f 16/3/1 12/3/1 14/3/1
f 16/1/1 14/1/1 15/1/1
f 17/2/1 11/2/1 1/2/1
f 17/3/1 15/3/1 11/3/1
f 17/3/1 16/3/1 15/3/1
f 18/3/1 12/3/1 16/3/1
f 18/3/1 16/3/1 17/3/1
f 18/2/1 2/2/1 12/2/1
f 19/2/1 17/2/1 1/2/1
f 19/2/1 18/2/1 17/2/1
f 20/2/1 2/2/1 18/2/1
f 20/2/1 18/2/1 19/2/1
f 21/3/1 20/3/1 19/3/1
f 22/3/1 20/3/1 21/3/1
f 23/3/1 21/3/1 19/3/1
f 23/1/1 22/1/1 21/1/1
f 24/3/1 20/3/1 22/3/1
f 24/1/1 22/1/1 23/1/1
f 25/2/1 19/2/1 1/2/1
f 25/3/1 23/3/1 19/3/1
f 25/3/1 24/3/1 23/3/1
f 26/3/1 20/3/1 24/3/1
f 26/3/1 24/3/1 25/3/1
f 26/2/1 2/2/1 20/2/1
f 27/2/1 25/2/1 1/2/1
f 27/2/1 26/2/1 25/2/1
f 28/2/1 2/2/1 26/2/1
f 28/2/1 26/2/1 27/2/1
f 29/2/2 30/2/2 31/2/2
f 31/2/2 30/2/2 32/2/2
f 31/3/2 32/3/2 33/3/2
f 33/3/2 32/3/2 34/3/2
f 31/3/2 33/3/2 35/3/2
f 33/1/2 34/1/2 35/1/2
f 34/3/2 32/3/2 36/3/2
f 35/1/2 34/1/2 36/1/2
f 29/2/2 31/2/2 37/2/2
f 31/3/2 35/3/2 37/3/2
f 35/3/2 36/3/2 37/3/2
f 36/3/2 32/3/2 38/3/2
f 37/3/2 36/3/2 38/3/2
f 32/2/2 30/2/2 38/2/2
f 29/2/2 37/2/2 39/2/2
f 37/2/2 38/2/2 39/2/2
f 38/2/2 30/2/2 40/2/2
f 39/2/2 38/2/2 40/2/2
f 39/3/2 40/3/2 41/3/2
f 41/3/2 40/3/2 42/3/2
f 39/3/2 41/3/2 43/3/2
f 41/1/2 42/1/2 43/1/2
f 42/3/2 40/3/2 44/3/2
f 43/1/2 42/1/2 44/1/2
f 29/2/2 39/2/2 45/2/2
f 39/3/2 43/3/2 45/3/2
f 43/3/2 44/3/2 45/3/2
f 44/3/2 40/3/2 46/3/2
f 45/3/2 44/3/2 46/3/2
f 40/2/2 30/2/2 46/2/2
f 29/2/2 45/2/2 47/2/2
f 45/2/2 46/2/2 47/2/2
f 46/2/2 30/2/2 48/2/2
f 47/2/2 46/2/2 48/2/2
f 47/3/2 48/3/2 49/3/2
f 49/3/2 48/3/2 50/3/2
f 47/3/2 49/3/2 51/3/2
f 49/1/2 50/1/2 51/1/2
f 50/3/2 48/3/2 52/3/2
f 51/1/2 50/1/2 52/1/2
f 29/2/2 47/2/2 53/2/2
f 47/3/2 51/3/2 53/3/2
f 51/3/2 52/3/2 53/3/2
f 52/3/2 48/3/2 54/3/2
f 53/3/2 52/3/2 54/3/2
f 48/2/2 30/2/2 54/2/2
f 29/2/2 53/2/2 55/2/2
f 53/2/2 54/2/2 55/2/2
f 54/2/2 30/2/2 56/2/2
f 55/2/2 54/2/2 56/2/2
f 59/2/3 58/2/3 57/2/3
f 60/2/3 58/2/3 59/2/3
f 61/2/3 58/2/3 60/2/3
f 62/2/3 58/2/3 61/2/3
f 63/2/3 58/2/3 62/2/3
f 64/2/3 58/2/3 63/2/3
f 65/3/3 60/3/3 59/3/3
f 66/3/3 60/3/3 65/3/3
f 67/3/3 62/3/3 61/3/3
f 68/3/3 62/3/3 67/3/3
f 69/3/3 64/3/3 63/3/3
f 70/3/3 64/3/3 69/3/3
f 71/3/3 65/3/3 59/3/3
f 71/1/3 66/1/3 65/1/3
f 72/3/3 60/3/3 66/3/3
f 72/1/3 66/1/3 71/1/3
f 73/3/3 67/3/3 61/3/3
f 73/1/3 68/1/3 67/1/3
f 74/3/3 62/3/3 68/3/3
f 74/1/3 68/1/3 73/1/3
f 75/1/3 70/1/3 69/1/3
f 75/3/3 69/3/3 63/3/3
f 76/3/3 64/3/3 70/3/3
f 76/1/3 70/1/3 75/1/3
f 77/2/3 59/2/3 57/2/3
f 77/3/3 71/3/3 59/3/3
f 77/3/3 72/3/3 71/3/3
f 78/2/3 61/2/3 60/2/3
f 78/3/3 72/3/3 77/3/3
f 78/3/3 60/3/3 72/3/3
f 79/3/3 73/3/3 61/3/3
f 79/2/3 61/2/3 78/2/3
f 79/3/3 74/3/3 73/3/3
f 80/2/3 63/2/3 62/2/3
f 80/3/3 74/3/3 79/3/3
f 80/3/3 62/3/3 74/3/3
f 81/3/3 76/3/3 75/3/3
f 81/2/3 63/2/3 80/2/3
f 81/3/3 75/3/3 63/3/3
f 82/3/3 64/3/3 76/3/3
f 82/3/3 76/3/3 81/3/3
f 82/2/3 58/2/3 64/2/3
f 83/2/3 81/2/3 80/2/3
f 83/2/3 78/2/3 77/2/3
f 83/2/3 82/2/3 81/2/3
f 83/2/3 79/2/3 78/2/3
f 83/2/3 80/2/3 79/2/3
f 83/2/3 77/2/3 57/2/3
f 84/2/3 58/2/3 82/2/3
f 84/2/3 82/2/3 83/2/3
f 85/2/4 86/2/4 87/2/4
f 87/2/4 86/2/4 88/2/4
f 88/2/4 86/2/4 89/2/4
f 89/2/4 86/2/4 90/2/4
f 90/2/4 86/2/4 91/2/4
f 91/2/4 86/2/4 92/2/4
f 85/2/4 87/2/4 93/2/4
f 87/1/4 88/1/4 93/1/4
f 88/2/4 89/2/4 94/2/4
f 93/1/4 88/1/4 94/1/4
f 89/1/4 90/1/4 95/1/4
f 94/2/4 89/2/4 95/2/4
f 90/2/4 91/2/4 96/2/4
f 95/1/4 90/1/4 96/1/4
f 91/1/4 92/1/4 97/1/4
f 96/2/4 91/2/4 97/2/4
f 92/2/4 86/2/4 98/2/4
f 97/1/4 92/1/4 98/1/4
f 96/2/4 97/2/4 99/2/4
f 95/2/4 96/2/4 99/2/4
f 97/2/4 98/2/4 99/2/4
f 94/2/4 95/2/4 99/2/4
f 93/2/4 94/2/4 99/2/4
f 85/2/4 93/2/4 99/2/4
f 98/2/4 86/2/4 100/2/4
f 99/2/4 98/2/4 100/2/4
f 103/2/5 102/2/5 101/2/5
f 104/2/5 102/2/5 103/2/5
f 105/3/5 104/3/5 103/3/5
f 106/3/5 104/3/5 105/3/5
f 107/3/5 105/3/5 103/3/5
f 107/1/5 106/1/5 105/1/5
f 108/3/5 104/3/5 106/3/5
f 108/1/5 106/1/5 107/1/5
f 109/2/5 103/2/5 101/2/5
f 109/3/5 107/3/5 103/3/5
f 109/3/5 108/3/5 107/3/5
f 110/3/5 104/3/5 108/3/5
f 110/3/5 108/3/5 109/3/5
f 110/2/5 102/2/5 104/2/5
f 111/2/5 109/2/5 101/2/5
f 111/2/5 110/2/5 109/2/5
f 112/2/5 102/2/5 110/2/5
f 112/2/5 110/2/5 111/2/5
f 113/2/6 114/2/6 115/2/6
f 115/2/6 114/2/6 116/2/6
f 113/2/6 115/2/6 117/2/6
f 115/1/6 116/1/6 117/1/6
f 116/2/6 114/2/6 118/2/6
f 117/1/6 116/1/6 118/1/6
f 113/2/6 117/2/6 119/2/6
f 117/2/6 118/2/6 119/2/6
f 118/2/6 114/2/6 120/2/6
f 119/2/6 118/2/6 120/2/6
